<svg xmlns="http://www.w3.org/2000/svg" xmlns:svg="http://www.w3.org/2000/svg" id="Layer_1" x="0" y="0" version="1.1" viewBox="0 0 16 16" xml:space="preserve" style="enable-background:new 0 0 16 16"><metadata id="metadata4318"/><path id="rect4860-3-5" d="M 16,0.5 A 0.50004997,0.50004997 0 0 0 15.5,0 l -5,0 -5,0 -5,0 A 0.50004997,0.50004997 0 0 0 0,0.5 l 0,15 A 0.50004997,0.50004997 0 0 0 0.5,16 l 5,0 5,0 5,0 A 0.50004997,0.50004997 0 0 0 16,15.5 l 0,-15 z M 15,1 15,15 11,15 11,1 15,1 Z M 10,1 10,15 6,15 6,1 10,1 Z M 5,1 5,15 1,15 1,1 5,1 Z" style="color:#000;font-style:normal;font-variant:normal;font-weight:400;font-stretch:normal;font-size:medium;line-height:normal;font-family:sans-serif;text-indent:0;text-align:start;text-decoration:none;text-decoration-line:none;text-decoration-style:solid;text-decoration-color:#000;letter-spacing:normal;word-spacing:normal;text-transform:none;direction:ltr;block-progression:tb;writing-mode:lr-tb;baseline-shift:baseline;text-anchor:start;white-space:normal;clip-rule:nonzero;display:inline;overflow:visible;visibility:visible;opacity:1;isolation:auto;mix-blend-mode:normal;color-interpolation:sRGB;color-interpolation-filters:linearRGB;solid-color:#000;solid-opacity:1;fill:#000;fill-opacity:1;fill-rule:nonzero;stroke:none;stroke-width:.99999994;stroke-linecap:butt;stroke-linejoin:round;stroke-miterlimit:4;stroke-dasharray:none;stroke-dashoffset:0;stroke-opacity:1;color-rendering:auto;image-rendering:auto;shape-rendering:auto;text-rendering:auto;enable-background:accumulate"/></svg>