<svg xmlns="http://www.w3.org/2000/svg" xmlns:svg="http://www.w3.org/2000/svg" id="Layer_1" x="0" y="0" version="1.1" viewBox="0 0 16 16" xml:space="preserve" style="enable-background:new 0 0 16 16"><metadata id="metadata4318"/><g id="g7209" transform="matrix(0,1,-1,0,3.0984025,11.835155)"><path id="rect4860-3-5" d="m 4.1640625,-12.402344 a 0.50004997,0.50004997 0 0 0 -0.5,-0.5 l -5,0 -5,0 -5.0000005,0 a 0.50004997,0.50004997 0 0 0 -0.5,0.5 l 0,15.0000002 a 0.50004997,0.50004997 0 0 0 0.5,0.5 l 4.9648442,0 a 0.50004997,0.50004997 0 0 0 0.035156,0 l 4.9648437,0 a 0.50004997,0.50004997 0 0 0 0.035156,0 l 5,0 a 0.50004997,0.50004997 0 0 0 0.5,-0.5 l 0,-15.0000002 z m -1,0.5 0,14.0000002 -4,0 0,-14.0000002 4,0 z m -5,0 0,14.0000002 -4,0 0,-14.0000002 4,0 z m -5,0 0,14.0000002 -4.0000005,0 0,-14.0000002 4.0000005,0 z" style="color:#000;font-style:normal;font-variant:normal;font-weight:400;font-stretch:normal;font-size:medium;line-height:normal;font-family:sans-serif;text-indent:0;text-align:start;text-decoration:none;text-decoration-line:none;text-decoration-style:solid;text-decoration-color:#000;letter-spacing:normal;word-spacing:normal;text-transform:none;direction:ltr;block-progression:tb;writing-mode:lr-tb;baseline-shift:baseline;text-anchor:start;white-space:normal;clip-rule:nonzero;display:inline;overflow:visible;visibility:visible;opacity:1;isolation:auto;mix-blend-mode:normal;color-interpolation:sRGB;color-interpolation-filters:linearRGB;solid-color:#000;solid-opacity:1;fill:#000;fill-opacity:1;fill-rule:nonzero;stroke:none;stroke-width:.99999994;stroke-linecap:butt;stroke-linejoin:round;stroke-miterlimit:4;stroke-dasharray:none;stroke-dashoffset:0;stroke-opacity:1;color-rendering:auto;image-rendering:auto;shape-rendering:auto;text-rendering:auto;enable-background:accumulate"/></g></svg>